<?xml version="1.0" encoding="UTF-8" standalone="no"?>
<!DOCTYPE svg PUBLIC "-//W3C//DTD SVG 1.1//EN" "http://www.w3.org/Graphics/SVG/1.1/DTD/svg11.dtd">
<svg width="100%" height="100%" viewBox="0 0 512 512" version="1.1" xmlns="http://www.w3.org/2000/svg" xmlns:xlink="http://www.w3.org/1999/xlink" xml:space="preserve" xmlns:serif="http://www.serif.com/" style="fill-rule:evenodd;clip-rule:evenodd;stroke-linejoin:round;stroke-miterlimit:2;">
    <g id="Page-1">
        <g id="_001---Accessibility" serif:id="001---Accessibility">
            <path id="Shape" d="M256,0C114.615,-0 0,114.615 0,256C-0,397.385 114.615,512 256,512C397.385,512 512,397.385 512,256C511.84,114.681 397.319,0.16 256,0Z" style="fill:rgb(10,14,240);fill-rule:nonzero;"/>
            <path id="Shape1" serif:id="Shape" d="M256,179.2C284.277,179.2 307.2,156.277 307.2,128C307.2,99.723 284.277,76.8 256,76.8C227.723,76.8 204.8,99.723 204.8,128C204.828,156.265 227.735,179.172 256,179.2Z" style="fill:white;fill-rule:nonzero;"/>
            <path id="Shape2" serif:id="Shape" d="M374.844,187.802L374.707,187.802L285.107,195.849C282.052,196.127 278.994,196.267 275.934,196.267L236.066,196.267C233.011,196.267 229.959,196.13 226.91,195.857L137.156,187.802C123.06,186.694 110.735,197.223 109.628,211.319C108.52,225.416 119.05,237.74 133.146,238.848L205.568,245.419C209.962,245.816 213.329,249.497 213.333,253.909L213.333,273.536C213.336,277.803 212.537,282.032 210.978,286.003L169.916,390.579C164.192,403.511 170.035,418.635 182.967,424.358C195.899,430.082 211.023,424.239 216.747,411.307L255.881,315.622L295.381,411.563C301.272,424.17 316.154,429.763 328.89,424.156C341.625,418.549 347.55,403.796 342.229,390.938L301.022,285.978C299.467,282.011 298.668,277.788 298.667,273.527L298.667,253.901C298.671,249.489 302.038,245.807 306.432,245.41L378.735,238.848C392.833,237.773 403.391,225.473 402.317,211.375C401.242,197.277 388.942,186.719 374.844,187.793L374.844,187.802Z" style="fill:white;fill-rule:nonzero;"/>
        </g>
    </g>
</svg>
